<svg width="146" height="177" viewBox="0 0 146 177" fill="none" xmlns="http://www.w3.org/2000/svg">
<path d="M72.9259 0.666687C76.9759 0.666687 80.3231 3.67633 80.8528 7.58113L80.9259 8.66669L80.9194 149.296L131.517 98.4908C134.635 95.3599 139.7 95.349 142.831 98.4665C145.677 101.301 145.945 105.744 143.628 108.881L142.855 109.78L78.5991 174.313C78.1882 174.726 77.7435 175.085 77.2738 175.389C77.1325 175.475 76.9878 175.562 76.8403 175.645C76.7138 175.721 76.5825 175.79 76.4498 175.855C76.2566 175.946 76.057 176.034 75.8534 176.114C75.6964 176.179 75.5437 176.234 75.3898 176.283C75.1989 176.342 74.9955 176.399 74.789 176.449C74.6448 176.485 74.5061 176.514 74.3668 176.54C74.1595 176.575 73.945 176.605 73.728 176.627C73.5625 176.646 73.3985 176.657 73.2343 176.663C73.1348 176.665 73.0305 176.667 72.9259 176.667L72.616 176.663C72.4589 176.657 72.3021 176.646 72.1456 176.63L72.9259 176.667C72.421 176.667 71.9271 176.62 71.4482 176.531C71.3338 176.51 71.2164 176.485 71.0995 176.458C70.8586 176.401 70.6267 176.335 70.3994 176.26C70.2864 176.222 70.1657 176.179 70.0459 176.133C69.8052 176.04 69.5757 175.938 69.3522 175.826C69.2471 175.774 69.1371 175.716 69.0282 175.655C68.8505 175.555 68.6816 175.452 68.517 175.343C68.4006 175.266 68.2793 175.181 68.16 175.092L68.0678 175.023C67.7862 174.808 67.5193 174.574 67.269 174.324L67.2616 174.314L2.99491 109.781C-0.122806 106.65 -0.112319 101.585 3.01834 98.4669C5.86439 95.6326 10.3093 95.3837 13.4364 97.7139L14.332 98.4904L64.9195 149.275L64.9259 8.66669C64.9259 4.24841 68.5076 0.666687 72.9259 0.666687Z" fill="#B44663"/>
</svg>
