<svg width="146" height="177" viewBox="0 0 146 177" fill="none" xmlns="http://www.w3.org/2000/svg">
<path d="M73.074 176.333C69.0239 176.333 65.6768 173.324 65.1471 169.419L65.074 168.333L65.0804 27.704L14.4828 78.5092C11.3653 81.6401 6.30003 81.651 3.16911 78.5336C0.32283 75.6995 0.0550537 71.2557 2.37209 68.1188L3.14476 67.2199L67.4007 2.68655C67.8117 2.27385 68.2564 1.91539 68.7261 1.61115C68.8674 1.52522 69.0121 1.43774 69.1596 1.35483C69.286 1.27855 69.4174 1.20963 69.5501 1.14459C69.7433 1.05429 69.9429 0.966049 70.1465 0.885925C70.3035 0.820831 70.4562 0.766479 70.6101 0.716904C70.801 0.657959 71.0044 0.600693 71.2109 0.551437C71.3551 0.514816 71.4938 0.485809 71.6331 0.46051C71.8404 0.424942 72.0549 0.394653 72.2719 0.373047C72.4374 0.354401 72.6014 0.34317 72.7656 0.33696C72.8651 0.335358 72.9694 0.333344 73.074 0.333344L73.3839 0.337341C73.541 0.343475 73.6978 0.354202 73.8543 0.369537L73.074 0.333344C73.5789 0.333344 74.0728 0.380096 74.5517 0.469528C74.6661 0.490265 74.7835 0.514984 74.9004 0.542343C75.1413 0.599167 75.3732 0.664841 75.6005 0.740463C75.7135 0.777573 75.8342 0.820816 75.954 0.867035C76.1947 0.96051 76.4242 1.06213 76.6477 1.17392C76.7528 1.22585 76.8628 1.28401 76.9717 1.34491C77.1494 1.44489 77.3183 1.54788 77.4829 1.65678C77.5993 1.73363 77.7206 1.81871 77.8399 1.90756L77.9321 1.97679C78.2137 2.19232 78.4806 2.42615 78.7309 2.67648L78.7383 2.68608L143.005 67.2194C146.123 70.3501 146.112 75.4154 142.982 78.5331C140.136 81.3674 135.691 81.6164 132.564 79.2861L131.668 78.5097L81.0804 27.7253L81.074 168.333C81.074 172.752 77.4923 176.333 73.074 176.333Z" fill="#E6BC9D"/>
</svg>
