<svg width="33" height="28" viewBox="0 0 33 28" fill="none" xmlns="http://www.w3.org/2000/svg">
<path d="M33 13.5486C33 14.308 32.4357 14.9356 31.7035 15.0349L31.5 15.0486L5.132 15.0474L14.658 24.5344C15.245 25.119 15.2471 26.0687 14.6625 26.6558C14.1312 27.1894 13.2979 27.2396 12.7098 26.8052L12.5412 26.6603L0.441227 14.6123C0.363846 14.5353 0.296635 14.4519 0.23959 14.3638C0.223476 14.3373 0.207077 14.3102 0.191528 14.2825C0.177227 14.2588 0.164303 14.2342 0.152111 14.2093C0.135178 14.1731 0.118633 14.1357 0.103611 14.0975C0.091404 14.0681 0.0812149 14.0394 0.0719185 14.0106C0.0608673 13.9748 0.0501289 13.9366 0.0408936 13.8979C0.0340271 13.8709 0.0285873 13.8449 0.0238457 13.8188C0.0171738 13.7799 0.0114975 13.7397 0.00744629 13.699C0.00394821 13.6679 0.0018425 13.6372 0.000679016 13.6064C0.000377655 13.5878 0 13.5682 0 13.5486L0.000751495 13.4905C0.00189972 13.461 0.00391006 13.4316 0.00678635 13.4023L0 13.5486C0 13.4539 0.00876617 13.3613 0.0255356 13.2715C0.0294228 13.2501 0.0340576 13.2281 0.0391884 13.2061C0.0498428 13.161 0.0621567 13.1175 0.0763359 13.0749C0.0832939 13.0537 0.091404 13.0311 0.100067 13.0086C0.117596 12.9635 0.13665 12.9204 0.157608 12.8785C0.167347 12.8588 0.178249 12.8382 0.189671 12.8178C0.208416 12.7845 0.227726 12.7528 0.248146 12.7219C0.262554 12.7001 0.278507 12.6774 0.295166 12.655L0.308147 12.6377C0.34856 12.5849 0.392403 12.5349 0.439339 12.4879L0.441139 12.4865L12.5411 0.436536C13.1281 -0.148037 14.0779 -0.14607 14.6625 0.440928C15.1939 0.974562 15.2406 1.80799 14.8036 2.39431L14.6581 2.56224L5.136 12.0474L31.5 12.0486C32.3284 12.0486 33 12.7202 33 13.5486Z" fill="#333333"/>
</svg>
