<svg width="48" height="44" viewBox="0 0 48 44" fill="none" xmlns="http://www.w3.org/2000/svg">
<path d="M13.3333 38.2533C11.2 38.2533 9.06667 36.3867 8 35.5867C2.66667 31.8533 1.06667 30.52 0 29.72V40.92C0 42.3925 1.19417 43.5867 2.66667 43.5867H24C25.4725 43.5867 26.6667 42.3925 26.6667 40.92V29.72C25.6 30.52 24 31.8533 18.6667 35.5867C17.6 36.3867 15.4667 38.2533 13.3333 38.2533ZM24 22.2533H2.66667C1.19417 22.2533 0 23.4475 0 24.92V26.2533C2.13333 27.8533 1.86667 27.8533 9.6 33.4533C10.4 33.9867 12 35.5867 13.3333 35.5867C14.6667 35.5867 16.2667 33.9867 17.0667 33.72C24.8 28.12 24.5333 28.12 26.6667 26.52V24.92C26.6667 23.4475 25.4725 22.2533 24 22.2533ZM45.3333 14.2533H18.6667C17.1942 14.2533 16 15.4475 16 16.92V19.5867H24C26.7675 19.5867 29.0492 21.705 29.3092 24.405L29.3333 24.3867V35.5867H45.3333C46.8058 35.5867 48 34.3925 48 32.92V16.92C48 15.4475 46.8058 14.2533 45.3333 14.2533ZM42.6667 24.92H37.3333V19.5867H42.6667V24.92ZM13.3333 16.92C13.3333 13.9792 15.7258 11.5867 18.6667 11.5867H37.3333V3.58668C37.3333 2.11418 36.1392 0.920013 34.6667 0.920013H8C6.5275 0.920013 5.33333 2.11418 5.33333 3.58668V19.5867H13.3333V16.92Z" fill="#E6BC9D"/>
</svg>
