<svg width="48" height="48" viewBox="0 0 48 48" fill="none" xmlns="http://www.w3.org/2000/svg">
<path d="M46.6303 33.9179L36.1303 29.4179C35.6818 29.2267 35.1833 29.1865 34.7098 29.3031C34.2364 29.4198 33.8137 29.6871 33.5053 30.0648L28.8553 35.746C21.5576 32.3052 15.6846 26.4322 12.2438 19.1345L17.925 14.4845C18.3034 14.1767 18.5713 13.7539 18.688 13.2803C18.8047 12.8066 18.764 12.3079 18.5719 11.8595L14.0719 1.35946C13.861 0.876095 13.4882 0.481443 13.0175 0.243555C12.5469 0.00566733 12.008 -0.0605442 11.4937 0.0563374L1.74375 2.30634C1.24797 2.42082 0.805636 2.69997 0.488939 3.09823C0.172242 3.49648 -0.000114207 3.99032 5.67769e-08 4.49915C5.67769e-08 28.546 19.4906 47.9991 43.5 47.9991C44.009 47.9995 44.503 47.8272 44.9015 47.5105C45.2999 47.1938 45.5792 46.7513 45.6937 46.2554L47.9437 36.5054C48.0599 35.9887 47.9923 35.4476 47.7525 34.9754C47.5128 34.5031 47.116 34.1292 46.6303 33.9179Z" fill="#E6BC9D"/>
</svg>
