<svg width="37" height="48" viewBox="0 0 37 48" fill="none" xmlns="http://www.w3.org/2000/svg">
<path d="M16.9099 47.0316C3.2882 27.2842 0.759766 25.2575 0.759766 18C0.759766 8.05884 8.81861 0 18.7598 0C28.7009 0 36.7598 8.05884 36.7598 18C36.7598 25.2575 34.2313 27.2842 20.6096 47.0316C19.7157 48.3229 17.8037 48.3228 16.9099 47.0316ZM18.7598 25.5C22.9019 25.5 26.2598 22.1422 26.2598 18C26.2598 13.8578 22.9019 10.5 18.7598 10.5C14.6176 10.5 11.2598 13.8578 11.2598 18C11.2598 22.1422 14.6176 25.5 18.7598 25.5Z" fill="#E6BC9D"/>
</svg>
